<svg xmlns="http://www.w3.org/2000/svg" xmlns:xlink="http://www.w3.org/1999/xlink" viewBox="0 0 156 210">
  <defs>
    <linearGradient id="k" x2="0" y1="545.14" y2="518.14" gradientTransform="matrix(.567 0 0 .567 232.7787 230.5482)" gradientUnits="userSpaceOnUse">
      <stop offset="0" stop-color="#00a661" style="stop-color:#009a5a;stop-opacity:1"/>
      <stop offset="1" stop-color="#37ce97"/>
    </linearGradient>
    <linearGradient id="j">
      <stop offset="0" style="stop-color:#ec0858;stop-opacity:1"/>
      <stop offset="1" style="stop-color:#850633;stop-opacity:1"/>
    </linearGradient>
    <linearGradient id="i">
      <stop offset="0" style="stop-color:#e95420;stop-opacity:1"/>
      <stop offset="1" style="stop-color:#77216f;stop-opacity:1"/>
    </linearGradient>
    <linearGradient id="h">
      <stop offset="0" style="stop-color:#1381b7;stop-opacity:1"/>
      <stop offset="1" style="stop-color:#57b1de;stop-opacity:1"/>
    </linearGradient>
    <linearGradient id="g">
      <stop offset="0" style="stop-color:#73acd3;stop-opacity:1"/>
      <stop offset="1" style="stop-color:#4b6cb2;stop-opacity:1"/>
    </linearGradient>
    <linearGradient id="f">
      <stop offset="0" style="stop-color:#478061;stop-opacity:1"/>
      <stop offset="1" style="stop-color:#abc2ab;stop-opacity:1"/>
    </linearGradient>
    <linearGradient id="e">
      <stop offset="0" style="stop-color:#83c65c;stop-opacity:1"/>
      <stop offset="1" style="stop-color:#4f8434;stop-opacity:1"/>
    </linearGradient>
    <linearGradient id="d">
      <stop offset="0" style="stop-color:#106895;stop-opacity:1"/>
      <stop offset="1" style="stop-color:#0c4e6e;stop-opacity:1"/>
    </linearGradient>
    <linearGradient id="c" x1="-22.0009" x2="45.1598" y1="39.4667" y2="71.8891" gradientTransform="translate(-128.3277 -89.084)" gradientUnits="userSpaceOnUse">
      <stop offset="0" stop-color="#C957E6"/>
      <stop offset="1" stop-color="#1A9FFF"/>
    </linearGradient>
    <linearGradient xlink:href="#a" id="m" x2="0" y1="545.14" y2="518.14" gradientTransform="translate(812.2563 871.363) scale(2.14302)" gradientUnits="userSpaceOnUse"/>
    <linearGradient id="a" x2="0" y1="545.8" y2="517.8" gradientUnits="userSpaceOnUse">
      <stop stop-color="#3889e9"/>
      <stop offset="1" stop-color="#5ea5fb"/>
    </linearGradient>
    <linearGradient id="l" x2="0" y1="545.14" y2="518.14" gradientTransform="translate(879.7936 871.3632) scale(2.14302)" gradientUnits="userSpaceOnUse">
      <stop stop-color="#00a661"/>
      <stop offset="1" stop-color="#37ce97"/>
    </linearGradient>
    <linearGradient xlink:href="#b" id="n" x2="0" y1="545.14" y2="518.14" gradientTransform="translate(962.795 873.3536) scale(2.14302)" gradientUnits="userSpaceOnUse"/>
    <linearGradient id="b" x2="0" y1="545.14" y2="518.14" gradientUnits="userSpaceOnUse">
      <stop stop-color="#9662ff"/>
      <stop offset="1" stop-color="#bc9bff"/>
    </linearGradient>
    <linearGradient xlink:href="#c" id="o" x1="29.2601" x2="28.5935" y1="97.1109" y2="28.9071" gradientTransform="translate(468 276.2988) scale(.8199)" gradientUnits="userSpaceOnUse"/>
    <linearGradient xlink:href="#d" id="p" x1="490.2043" x2="490.2043" y1="500.2189" y2="516.0951" gradientTransform="translate(-98.073 121.0924) scale(3.77953)" gradientUnits="userSpaceOnUse"/>
    <linearGradient xlink:href="#e" id="q" x1="115.679" x2="115.679" y1="64.3588" y2="77.0589" gradientTransform="translate(-47.9254 -10.2355) scale(3.77953)" gradientUnits="userSpaceOnUse"/>
    <linearGradient xlink:href="#f" id="s" x1="115.679" x2="115.679" y1="77.0589" y2="64.3588" gradientTransform="translate(-57.2119) scale(3.77953)" gradientUnits="userSpaceOnUse"/>
    <linearGradient xlink:href="#g" id="t" x1="115.679" x2="115.679" y1="64.3588" y2="77.0589" gradientTransform="translate(-113.2117) scale(3.77953)" gradientUnits="userSpaceOnUse"/>
    <linearGradient xlink:href="#h" id="u" x1="85.394" x2="85.394" y1="60.5557" y2="47.8557" gradientTransform="translate(77.6322 -3.3491) scale(3.77953)" gradientUnits="userSpaceOnUse"/>
    <linearGradient xlink:href="#i" id="v" x1="1493.7241" x2="1493.7241" y1="184.9274" y2="2308.2061" gradientTransform="translate(-2696.5013 -691.9714) scale(3.77953)" gradientUnits="userSpaceOnUse"/>
    <linearGradient xlink:href="#j" id="r" x1="102.979" x2="102.979" y1="84.8499" y2="97.5499" gradientTransform="translate(-47.9254 -10.2355) scale(3.77953)" gradientUnits="userSpaceOnUse"/>
    <linearGradient xlink:href="#k" id="w" x1="-231.6882" x2="-231.6882" y1="-334.679" y2="-419.3341" gradientTransform="matrix(.567 0 0 .567 327.3673 463.763)" gradientUnits="userSpaceOnUse"/>
  </defs>
  <g transform="translate(-1312.448 -1476.6957) scale(.79994)">
    <circle cx="1670.6846" cy="2011.0197" r="30.0022" fill="url(#l)" style="fill:url(#m);stroke-width:2.14302"/>
    <path d="M1668.4271 2008.7828v-5.0732c0-5.2836 4.2829-9.5665 9.5664-9.5665.8019 0 1.3702.091 2.1125.2849 1.0818.2835 1.965 1.1698 1.9666 2.202 0 1.2475-.9046 2.1538-2.2582 2.1538-.6445 0-.8781-.1224-1.8209-.1224-2.7851 0-5.0449 2.2566-5.0483 5.0416v4.3658c0 .3942.3179.7124.7125.7124h3.3136c1.236 0 2.2334.9892 2.235 2.2284 0 1.2392-.999 2.2268-2.235 2.2268h-4.031v5.0948c0 5.2818-4.2829 9.5646-9.5648 9.5646-.8019 0-1.3719-.092-2.1125-.2852-1.0818-.2832-1.965-1.1698-1.9667-2.202 0-1.2476.9047-2.1538 2.2583-2.1538.6445 0 .8781.124 1.8209.124 2.7851 0 5.045-2.2564 5.0499-5.04v-4.3872c0-.3926-.3197-.7124-.7124-.7124h-3.3136c-1.236 0-2.2351-.9858-2.2351-2.225 0-1.246 1.009-2.2284 2.2582-2.2284h4.0063" style="fill:none;stroke:#fff;stroke-width:1.2499;stroke-linecap:round;stroke-linejoin:round;stroke-dasharray:none;paint-order:normal"/>
  </g>
  <g transform="translate(-1258.4741 -1584.6957) scale(.79994)">
    <circle cx="1738.2222" cy="2011.0197" r="30.0022" fill="url(#l)" style="fill:url(#l);stroke-width:2.14302"/>
    <path fill="#fff" d="M1723.8778 1994.1444v13.5h8.4382v-5.063h10.125v-8.4383h-11.8172zm20.25 0v33.7502h8.4383v-33.7502zm-10.1249 10.125v23.6212h8.4381v-23.6212zm-10.1251 5.0632v18.5632h8.4382v-18.5632z" color="#000" style="fill:none;fill-opacity:1;stroke:#fff;stroke-width:1.24989;stroke-linecap:round;stroke-linejoin:round;stroke-dasharray:none"/>
  </g>
  <g transform="translate(-1324.8702 -1478.2878) scale(.79994)">
    <circle cx="1821.2234" cy="2013.0098" r="30.0022" fill="url(#l)" style="fill:url(#n);stroke-width:2.14302"/>
    <path d="M1826.2923 1999.703a3.9994 3.3326 26.1671 0 1 2.1199 4.7548 3.9994 3.3326 26.1671 0 1-5.0592 1.2274 3.9994 3.3326 26.1671 0 1-2.1199-4.7548 3.9994 3.3326 26.1671 0 1 5.0592-1.2274zm-20.471 22.4024c0-1.502 1.2736-3.5992 3.0777-5.5046 1.2059-1.2734 2.4305-2.3912 5.0997-4.68-1.8468-1.0188-4.7184-2.2486-6.1594-3.8584-.533-.5958-1.4993-1.9454-1.3121-3.7486.3819-3.6754 4.8928-9.2527 11.3041-10.4318 2.1331-.3923 4.5822-.1088 6.5979.802 6.3239 2.8593 14.0576 9.9628 15.0092 13.431.3357 1.221.2703 3.167-.3065 4.2514-.7157 1.3442-3.1932 4.0748-6.5819 6.8914-5.3183 4.4202-12.7705 9.167-18.335 9.9656-1.7981.2582-3.635-.02-4.924-.7426-2.0182-1.1446-2.6876-2.6726-2.9231-3.1308-.6256-1.218-.5481-2.7612-.5468-3.2452z" style="fill:none;stroke:#fff;stroke-width:1.25009;stroke-linecap:round;stroke-linejoin:round;stroke-dasharray:none"/>
  </g>
  <g transform="translate(-425.1085 -199.1208) scale(1.02374)">
    <circle cx="491.4436" cy="323.4436" r="23.4435" fill="url(#paint0_linear)" style="fill:url(#o);stroke-width:.819908"/>
    <path d="M494.8862 323.4436a6.9617 6.9617 0 0 1-6.9617 6.9618 6.9617 6.9617 0 0 1-6.9618-6.9618 6.9617 6.9617 0 0 1 6.9618-6.9617 6.9617 6.9617 0 0 1 6.9617 6.9617zm2.04 0c0-4.9564-3.996-8.9744-8.9252-8.9744v-5.0256c7.6897 0 13.9235 6.268 13.9235 14s-6.2338 14-13.9235 14v-5.0257c4.9293 0 8.9253-4.0179 8.9253-8.9743z" style="fill:none;stroke:#fff;stroke-width:1"/>
  </g>
  <g transform="translate(-1325.6293 -1555.2269) scale(.79994)">
    <circle cx="1754.6675" cy="2041.686" r="30.0022" style="fill:url(#p);stroke:none;stroke-width:1.46671;stroke-linecap:round;stroke-linejoin:round;stroke-dasharray:none;paint-order:normal"/>
    <path d="m1750.9245 2034.503-13.1334 12.984c.3842.268.7461.4868 1.0862.6648.3398.178.6582.3148.9545.4186.2956.102.5703.172.8226.2172.2525.044.4821.062.6905.062.2505 0 .4679-.026.653-.062.1856-.04.3382-.088.4619-.14a1.579 1.579 0 0 0 .2789-.144c.064-.04.097-.068.1036-.074l5.9285-5.929 2.1199-2.0328 5.8712 5.8712 2.0509 2.1086c.01 0 .041.03.1036.074.063.04.156.092.2789.144.124.052.2767.102.462.14.1856.04.4028.062.6529.062.2087 0 .4391-.02.6915-.062.2528-.044.5269-.114.8232-.2176.2959-.104.6144-.2404.9549-.4182.3402-.178.703-.3972 1.0877-.6648l-4.6561-4.5592-.0004.0004-3.0545-3.0486-.026-.026.0004-.0006zm9.1118 1.516-3.6588 3.6594 3.0136 2.9804.6437-.6438 4.0766 4.077 2.3776 2.3554c.01 0 .041.03.1032.074.063.04.1564.092.2793.144.1232.05.2763.102.4619.14.186.04.4027.062.6529.062.2087 0 .4391-.02.6915-.062.2528-.044.5269-.114.8232-.2178.2963-.104.615-.2404.9554-.4182.3401-.178.7026-.397 1.0872-.6646l-2.6675-2.6136zm-11.5186 7.9532-3.5149 3.5192c.3787.2634.7354.4798 1.0712.656.3356.176.6504.3134.9432.4166.2926.104.5645.176.8145.2208.2502.046.4784.066.686.07z" style="fill:none;fill-opacity:1;stroke:#fff;stroke-width:1.25018;stroke-linecap:round;stroke-linejoin:round;stroke-dasharray:none"/>
  </g>
  <g transform="translate(-311.2864 -233.0105)">
    <circle cx="389.2864" cy="257.0105" r="24" style="fill:url(#q);fill-opacity:1;stroke:none;stroke-width:4.0678;stroke-miterlimit:4;stroke-dasharray:none;stroke-opacity:1"/>
    <path d="M375.7864 244.4747v17.3572c0 4.2377 3.4766 7.7143 7.7143 7.7143h11.5715c4.2376 0 7.7143-3.4766 7.7143-7.7143v-9.6429c0-3.1725-2.6133-5.7857-5.7858-5.7857-1.482 0-2.8286.5858-3.8572 1.517-1.0284-.9312-2.375-1.517-3.857-1.517-3.1726 0-5.7858 2.6132-5.7858 5.7857v9.643h3.8571v-9.643c0-1.088.8406-1.9285 1.9286-1.9285s1.9286.8406 1.9286 1.9285v9.643h3.8572v-9.643c0-1.088.8405-1.9285 1.9286-1.9285 1.0879 0 1.9285.8406 1.9285 1.9285v9.643c0 2.153-1.704 3.857-3.8571 3.857h-11.5715c-2.153 0-3.8572-1.704-3.8572-3.857v-17.3573z" style="color:#000;fill:none;fill-opacity:1;stroke:#fff;stroke-width:.999958;stroke-dasharray:none;stroke-opacity:1"/>
  </g>
  <g transform="translate(-263.2865 -148.457)">
    <circle cx="341.2865" cy="334.457" r="24" style="fill:url(#r);fill-opacity:1;stroke:none;stroke-width:.786732;stroke-linecap:round;stroke-linejoin:round;stroke-dasharray:none;paint-order:normal"/>
    <path d="M349.6549 323.9152a10.7176 10.7176 0 0 0-.7891-.6901c-2.4309-1.9228-5.5964-2.6859-8.663-2.0469-4.0443.8428-7.3649 3.4615-9.1099 7.1855-1.7752 3.7885-1.6376 8.0835.379 11.7831 2.5685 4.7143 6.9767 7.4547 12.5019 7.8102-1.6863-.3555-3.5035-1.07-4.8049-1.7106a12.3662 12.3662 0 0 1-2.223-1.407c-3.9487-3.1236-6.0047-8.5239-4.7897-13.3094.6188-2.4385 2.2187-4.6983 4.3898-6.2018 2.1718-1.5035 4.7495-2.1333 7.0705-1.7291 2.0377.3555 3.8364 1.4867 5.064 3.184 1.2284 1.6988 1.7014 3.7121 1.3333 5.6684-.3617 1.9195-1.6528 3.589-3.454 4.467-1.6334.7966-3.4045.8024-4.8602.016-1.584-.8554-2.4326-2.2792-2.4535-4.1173-.018-1.5169.732-2.7227 2.1659-3.4875.9551-.5098 2.0335-.5576 2.9584-.1308.8889.41 1.543 1.2042 1.7232 2.1936.1958 1.0775.2238 3.2628-2.1525 3.8221.9668-.004 1.781-.4545 2.4283-1.2352.6952-.8368.9829-1.9278.7891-2.9927-.285-1.574-1.3559-2.825-2.8636-3.3466-1.6586-.5744-3.4908-.1954-4.8996 1.013-1.5152 1.2997-2.2682 3.209-2.0653 5.2374.217 2.1752 1.5086 4.087 3.454 5.116 2.17 1.1471 4.752 1.1295 7.0848-.0478 2.4913-1.2578 4.2522-3.6384 4.7125-6.3696.5384-3.194-.5282-6.3561-2.9264-8.6747" style="fill:none;fill-opacity:1;fill-rule:nonzero;stroke:#fff;stroke-width:.999958;stroke-linecap:round;stroke-linejoin:round;stroke-dasharray:none"/>
  </g>
  <g transform="translate(-355.9999 -243.246)">
    <circle cx="379.9999" cy="267.246" r="24" style="fill:url(#s);fill-opacity:1;stroke:none;stroke-width:4.0678;stroke-miterlimit:4;stroke-dasharray:none;stroke-opacity:1"/>
    <path d="M384.3005 267.246a4.3027 4.3027 0 0 1-4.3027 4.3028 4.3027 4.3027 0 0 1-4.3028-4.3028 4.3027 4.3027 0 0 1 4.3028-4.3027 4.3027 4.3027 0 0 1 4.3027 4.3027zm3.5796 10.9593-3.0698-3.0697a9.2485 9.2485 0 0 1-4.8104 1.359c-5.1078 0-9.2486-4.1407-9.2486-9.2486a9.2477 9.2477 0 0 1 1.3615-4.808l-3.0755-3.0755a13.5149 13.5149 0 0 0-2.5524 7.8835c0 7.4642 6.0509 13.515 13.515 13.515a13.515 13.515 0 0 0 7.8802-2.5557zm-7.8802-24.4743a13.515 13.515 0 0 0-7.8802 2.5557l3.0698 3.0698a9.2486 9.2486 0 0 1 4.8104-1.359c5.1079 0 9.2486 4.1407 9.2486 9.2485a9.248 9.248 0 0 1-1.3615 4.808l3.0755 3.0755a13.5152 13.5152 0 0 0 2.5524-7.8835c0-7.4641-6.0509-13.515-13.515-13.515z" style="fill:none;stroke:#fff;stroke-width:.969944;stroke-linecap:round;stroke-linejoin:round"/>
  </g>
  <g transform="translate(-300 -189.246)">
    <circle cx="324" cy="267.246" r="24" style="fill:url(#t);fill-opacity:1;stroke:none;stroke-width:4.0678;stroke-miterlimit:4;stroke-dasharray:none;stroke-opacity:1"/>
    <path d="m317.2422 255.539-.752 1.3008 1.502 2.6015h-3.004l-1.5018 2.6016h13.1425l-1.502-2.6016h-4.1308l-2.252-3.9023zm6.0078 0 6.5703 11.3828 1.502-2.6016-2.0664-3.5781 2.2539-3.9023-.752-1.3008h-1.502l-1.5019 2.6015-1.502-2.6015zm10.5117 5.2031-6.5703 11.3809h3.004l2.0644-3.5762h4.5059l.7519-1.3008-.752-1.3008h-3.0039l1.502-2.6015zm-15.957 1.627-2.0645 3.5761h-4.5058l-.752 1.3008.752 1.3008h3.0039l-1.502 2.6015 1.502 2.6016 6.5703-11.3808zm.375 5.2011-1.502 2.6016 2.0664 3.5781-2.2539 3.9024.752 1.3007h1.502l1.502-2.6015 1.5019 2.6015h3.002zm3.1914 4.879 1.502 2.6015h4.1308l2.252 3.9023h1.502l.7519-1.3007-1.502-2.6016h3.004l1.5019-2.6016z" style="fill:none;stroke:#fff;stroke-width:1;stroke-linecap:round;stroke-linejoin:round;stroke-dasharray:none"/>
  </g>
  <g transform="translate(-268.3813 -123.5228)">
    <circle cx="400.3813" cy="201.5228" r="24" style="fill:url(#u);stroke:none;stroke-width:.845896;stroke-linecap:round;stroke-linejoin:round;stroke-dasharray:none;paint-order:normal"/>
    <path d="M400.3817 186.3092c-1.202 2.9466-1.9316 4.8768-3.2697 7.7358.8204.8696 1.8287 1.8786 3.4641 3.0224-1.7582-.7235-2.9567-1.448-3.853-2.2017-1.7126 3.5734-4.3973 8.6615-9.842 18.4445 4.2783-2.47 7.595-3.9934 10.6857-4.5749-.1324-.57-.203-1.1895-.198-1.8326l.002-.1352c.0676-2.7416 1.4945-4.8498 3.184-4.7067 1.6894.1432 3.0047 2.4825 2.9367 5.2242-.016.5164-.073 1.0126-.1746 1.4733 3.0576.5984 6.343 2.115 10.5638 4.5518a1540.3665 1540.3665 0 0 1-2.2874-4.2288c-1.1177-.8662-2.2828-1.9931-4.6607-3.2136 1.6345.4247 2.8058.9158 3.718 1.4634-7.2138-13.4308-7.7966-15.2167-10.2704-21.022z" style="fill:none;stroke:#fff;stroke-width:.99998;stroke-linecap:round;stroke-linejoin:round;stroke-dasharray:none"/>
  </g>
  <path d="M6961.5648 4019.4602c0-262.6092-25.8584-525.2326-77.1012-782.7982-51.229-257.566-127.8286-510.0884-228.336-752.7188-100.4936-242.6164-224.8808-475.341-370.7936-693.7016-145.8988-218.3605-313.309-422.343-498.9982-608.0462-185.7034-185.6892-389.6856-353.0994-608.046-498.9981-218.3606-145.9126-451.0853-270.3-693.7015-370.7934-242.6306-100.5074-495.1532-177.107-752.719-228.336-257.5658-51.2429-520.1892-77.1012-782.7984-77.1012-262.6096 0-525.233 25.8583-782.7988 77.1012-257.5657 51.229-510.0884 127.8286-752.7185 228.336-242.6166 100.4934-475.3415 224.8808-693.7018 370.7934C501.4911 829.096 297.509 996.5062 111.8056 1182.1954c-185.6893 185.7032-353.0993 389.6857-498.9982 608.0462-145.9128 218.3606-270.3 451.0852-370.7935 693.7016-100.5075 242.6304-177.1068 495.1528-228.336 752.7188-51.2429 257.5656-77.1013 520.189-77.1013 782.7982 0 262.6096 25.8584 525.2326 77.1013 782.799 51.2292 257.5656 127.8285 510.088 228.336 752.7184 100.4934 242.6166 224.8807 475.3414 370.7935 693.7016 145.8989 218.3608 313.3089 422.343 498.9982 608.0462 185.7033 185.6894 389.6855 353.0994 608.0462 498.9982 218.3603 145.9126 451.0852 270.3002 693.7018 370.7936 242.6301 100.5074 495.1528 177.1066 752.7185 228.3358 257.5658 51.2428 520.1892 77.1012 782.7988 77.1012 262.6092 0 525.2326-25.8584 782.7984-77.1012 257.5658-51.2292 510.0884-127.8284 752.719-228.3358 242.6162-100.4934 475.3409-224.881 693.7015-370.7936 218.3604-145.8988 422.3426-313.3088 608.046-498.9982 185.6892-185.7032 353.0994-389.6854 498.9982-608.0462 145.9128-218.3602 270.3-451.085 370.7936-693.7016 100.5074-242.6304 177.107-495.1528 228.336-752.7184 51.2428-257.5664 77.1012-520.1894 77.1012-782.799z" style="fill:url(#v);stroke:none;stroke-width:13.9323;stroke-linecap:butt;stroke-linejoin:miter;stroke-miterlimit:10;stroke-dasharray:none;stroke-opacity:1" transform="translate(6.3607 161.9583) scale(.00598)"/>
  <path d="M1185.9349 4625.443c-3.2934-10.3886-4.8551-21.3094-4.7079-32.7732.3057-22.9164 7.401-43.4788 21.2981-61.71 6.9482-9.1098 14.9153-16.7372 23.9119-22.8936 74.3277-50.8118 137.1801-121.0424 179.7755-201.5602 42.5961-80.529 64.9352-171.356 64.9352-262.1724 0-90.8268-22.3391-181.643-64.9352-262.1716-42.5954-80.5176-105.4478-150.7488-179.7755-201.5606-8.9966-6.156-16.9637-13.7838-23.9119-22.8932-13.8971-18.2314-20.9925-38.7934-21.2981-61.7098-.147-11.4634 1.4145-22.3842 4.7079-32.7728 33.0671-104.4864 75.1875-206.1098 126.3501-304.847 102.3246-197.4864 234.8881-372.0114 397.6893-523.5636 81.4011-75.776 167.9954-143.608 259.7735-203.4952l334.7003 579.705c-164.3738 114.1622-303.1386 270.9424-397.1454 450.2656-94.0183 179.3228-143.2572 381.1774-143.2572 583.0432 0 201.8662 49.2389 403.7208 143.2572 583.0442 94.0068 179.3234 232.7716 336.1036 397.1454 450.2656l-334.7003 579.7054c-91.7781-59.8876-178.3724-127.7196-259.7735-203.4956-162.8012-151.5522-295.3647-326.0772-397.6893-523.5634-51.1626-98.7368-93.283-200.3608-126.3501-304.8468Zm2251.047-2461.8632c10.638 2.3538 20.8904 6.4504 30.7362 12.3124 19.6904 11.7128 33.9606 28.1558 42.7878 49.2952 4.4246 10.5698 7.039 21.298 7.8766 32.1618 6.8468 89.7636 36.236 179.3232 84.6708 256.4684 48.4352 77.1568 115.9272 141.9106 194.5776 187.3242 78.6624 45.4022 168.4822 71.4758 259.5136 74.848 91.0306 3.3724 183.2836-15.945 264.4462-54.9082 9.8234-4.719 20.427-7.797 31.7892-9.2684 22.7232-2.9196 44.0892 1.2224 64.0856 12.4144 10.0036 5.6018 18.6724 12.4258 26.0282 20.4606 73.954 80.8912 140.9028 168.165 200.8362 261.844 119.8542 187.3692 204.7174 389.4274 254.5672 606.1972 24.9302 108.3788 40.3779 217.2902 46.3419 326.722h-669.3899c-16.6804-199.4328-83.0752-398.0052-191.3638-569.0786-108.289-171.0734-258.4832-314.6472-433.3024-415.5802-174.8186-100.933-374.2634-159.2136-576.5594-167.4634-202.2956-8.2386-407.4548 33.5424-588.5098 118.8132l-334.7002-579.7052c97.7642-49.5442 199.7948-90.6234 306.126-123.2266 212.6506-65.2178 430.0652-92.751 652.2562-82.634 111.1068 5.0584 220.1648 19.3966 327.1862 43.0032zm1006.5118 3180.4006c-7.3558 8.0346-16.0246 14.8584-26.0282 20.4608-19.9964 11.1918-41.3624 15.3338-64.0856 12.4138-11.3622-1.471-21.9658-4.549-31.7892-9.2682-81.1626-38.9632-173.4156-58.2808-264.4462-54.9082-91.0424 3.372-180.863 29.4458-259.5136 74.8592-78.6504 45.403-146.1424 110.1566-194.5776 187.3126-48.4348 77.146-77.824 166.7052-84.6708 256.4692-.8376 10.8634-3.452 21.5912-7.8766 32.1612-8.8272 21.14-23.0974 37.5824-42.7878 49.2952-9.8458 5.8628-20.0982 9.959-30.7362 12.3126-107.0214 23.6066-216.0794 37.9336-327.175 43.003-222.2022 10.1178-439.6168-17.416-652.2674-82.6336-106.3202-32.6038-208.3618-73.6832-306.126-123.2272l334.7002-579.705c181.055 85.271 386.2142 127.0522 588.5098 118.8136 202.3074-8.25 401.7408-66.5304 576.5594-167.464 174.8192-100.9322 325.0134-244.5064 433.3024-415.5796 108.2998-171.0736 174.6834-369.6464 191.3638-569.0798h669.3899c-5.964 109.4324-21.4117 218.3432-46.3419 326.723-49.8498 216.7696-134.702 418.828-254.5672 606.1972-59.9334 93.6794-126.8822 180.9532-200.8362 261.8442zm-578.7548-2759.083c96.7232 55.8362 216.5552 71.6116 324.425 42.709 107.8704-28.9026 203.767-102.4834 259.615-199.2064 55.8354-96.7118 71.611-216.5548 42.709-324.4136-28.9034-107.8701-102.4952-203.7672-199.2072-259.6147-96.7114-55.8363-216.5544-71.6116-324.4248-42.7089-107.8702 28.9026-203.7672 102.4946-259.6034 199.2066-55.836 96.7118-71.6114 216.5548-42.709 324.4248 28.903 107.87 102.4838 203.767 199.1954 259.6032zm0 2918.8738c-96.7116 55.836-170.2924 151.733-199.1954 259.6028-28.9024 107.8706-13.127 227.7134 42.709 324.4252 55.8362 96.7116 151.7332 170.3044 259.6034 199.2068 107.8704 28.9016 227.7134 13.1266 324.4248-42.7092 96.712-55.8478 170.3038-151.7446 199.2072-259.6148 28.902-107.8588 13.1264-227.7018-42.709-324.4134-55.848-96.7236-151.7446-170.3038-259.615-199.2064-107.8698-28.9024-227.7018-13.1272-324.425 42.709zM1336.9211 4044.3336c0-111.6722-46.2624-223.3446-125.2183-302.3118-78.9676-78.9676-190.6519-125.2296-302.3247-125.2296-111.6725 0-223.3451 46.262-302.3127 125.2296-78.9671 78.9672-125.2187 190.6396-125.2187 302.3118 0 111.6726 46.2516 223.3446 125.2187 302.3126 78.9676 78.9674 190.6402 125.23 302.3127 125.23 111.6728 0 223.3571-46.2626 302.3247-125.23 78.9559-78.968 125.2183-190.64 125.2183-302.3126z" style="fill:none;fill-opacity:1;stroke:#fff;stroke-width:167.121;stroke-linecap:round;stroke-linejoin:round;stroke-miterlimit:10;stroke-dasharray:none;stroke-opacity:1" transform="translate(6.3607 161.9583) scale(.00598)"/>
  <g transform="translate(-64 -64)">
    <circle cx="195.9998" cy="249.9997" r="23.9998" fill="url(#l)" style="fill:url(#w);fill-opacity:1;stroke-width:.999992"/>
    <path d="M183.8632 261.552c1.3255-1.0291 3.5433-.778 6.2746-.4667 1.309.149 2.802.3195 4.3418.3537 4.3028.025 8.9322-.76 11.7895-2.0088 1.8471-.8102 3.0297-1.3435 3.7691-2.0165.2667-.2186.4067-.5844.5494-.9634l.0974-.2553c.1196-.3063.2922-.9654.3692-1.3248.0344-.1572.0512-.326-.0604-.4132l-.3985.075c-1.254.7519-4.3861 2.1839-7.3209 2.2425-3.6363.0762-10.9656-3.661-11.73-4.0555l-.0759-.0906a2135.4154 2135.4154 0 0 0-1.512-3.5888c5.2755 3.474 9.6493 5.3973 13.0013 5.696 3.727.331 6.6338-1.7044 7.8772-2.5738.2428-.1656.4275-.2953.5037-.3234l.0828-.1354c-.206-1.3096-2.1614-7.6484-3.6337-9.171-.4083-.4175-.733-.8247-1.392-1.2117-5.3294-3.1062-17.9832-4.9765-18.5756-5.0629l-.0983.0302-.037.0828s-.0476 2.6271-.0526 2.9187c-.4342-.1436-1.7804-.5846-3.7088-1.1135zm17.8312-19.9384c.0896-.001.1802-.004.2709 0 2.9853.1072 5.3313 2.622 5.2293 5.6054-.053 1.4432-.6616 2.7771-1.7155 3.7622-1.0569.9902-2.4308 1.5062-3.8821 1.4593-2.9804-.1114-5.326-2.6261-5.2293-5.6053.051-1.4454.663-2.7872 1.7232-3.7691.9898-.9282 2.2563-1.4322 3.6035-1.4525z" style="fill:none;stroke:#fff;stroke-width:.999998;stroke-linecap:round;stroke-linejoin:round;stroke-dasharray:none"/>
  </g>
</svg>
